<svg xmlns="http://www.w3.org/2000/svg" width="1536" height="1024" viewBox="0 0 1536 1024" role="img" aria-labelledby="title desc">
  <title id="title">Context Makes the Difference</title>
  <desc id="desc">Comparison of asking Copilot a vague question versus one with dojo file context via the @ syntax.</desc>
  <defs>
    <linearGradient id="bg" x1="0" y1="0" x2="1" y2="1">
      <stop offset="0%" stop-color="#081411" /><stop offset="45%" stop-color="#0c231c" /><stop offset="100%" stop-color="#03100e" />
    </linearGradient>
    <pattern id="grate" width="40" height="40" patternUnits="userSpaceOnUse">
      <path d="M0 0 L40 0 M0 0 L0 40" stroke="#7cff6b" stroke-opacity="0.05" stroke-width="1.4" />
    </pattern>
    <filter id="softShadow" x="-30%" y="-30%" width="160%" height="160%">
      <feDropShadow dx="0" dy="6" stdDeviation="10" flood-color="#000" flood-opacity="0.5" />
    </filter>
    <g id="turtleFrustrated">
      <path d="M-60,110 C-60,10 60,10 60,110 L60,150 C60,168 44,180 24,180 L-24,180 C-44,180 -60,168 -60,150 Z" fill="#1a4a30" stroke="#c23b3b" stroke-width="4" />
      <rect x="-60" y="30" width="120" height="34" fill="#0a1f16" stroke="#c23b3b" stroke-width="3" />
      <!-- hand on head -->
      <path d="M40,20 Q70,0 55,-25 Q40,-10 30,10 Z" fill="#1a4a30" stroke="#c23b3b" stroke-width="3" />
    </g>
    <g id="turtlePointing">
      <path d="M-60,110 C-60,10 60,10 60,110 L60,150 C60,168 44,180 24,180 L-24,180 C-44,180 -60,168 -60,150 Z" fill="#1a4a30" stroke="#7cff6b" stroke-width="4" />
      <rect x="-60" y="30" width="120" height="34" fill="#0a1f16" stroke="#7cff6b" stroke-width="3" />
      <path d="M60,60 L110,40 Q120,36 116,26 Q112,18 102,22 L56,44 Z" fill="#1a4a30" stroke="#7cff6b" stroke-width="3" />
    </g>
  </defs>

  <rect width="1536" height="1024" fill="url(#bg)" />
  <rect width="1536" height="1024" fill="url(#grate)" />

  <text x="768" y="90" text-anchor="middle" font-family="Verdana, Geneva, sans-serif" font-size="48" font-weight="700" fill="#f4fbf5">Context Makes the Difference</text>
  <line x1="200" y1="118" x2="1336" y2="118" stroke="#7cff6b" stroke-opacity="0.35" stroke-width="2" />

  <line x1="768" y1="160" x2="768" y2="880" stroke="#7cff6b" stroke-opacity="0.25" stroke-width="2" />

  <!-- LEFT: Without Context -->
  <text x="384" y="150" text-anchor="middle" font-family="Verdana, Geneva, sans-serif" font-size="32" font-weight="700" fill="#e05a5a" text-decoration="underline">Without Context</text>

  <rect x="60" y="240" width="648" height="560" rx="16" fill="#0a1f16" stroke="#c23b3b" stroke-opacity="0.3" stroke-width="2" />

  <g transform="translate(185 195)">
    <path d="M135,110 L160,150 L182,110 Z" fill="#0f2c22" stroke="#c23b3b" stroke-width="3" stroke-linejoin="round" />
    <rect x="0" y="0" width="240" height="112" rx="24" fill="#0f2c22" stroke="#c23b3b" stroke-width="3" />
    <text x="120" y="48" text-anchor="middle" font-family="Verdana, Geneva, sans-serif" font-size="21" fill="#f4fbf5">The dojo</text>
    <text x="120" y="78" text-anchor="middle" font-family="Verdana, Geneva, sans-serif" font-size="21" fill="#f4fbf5">app is broken.</text>
  </g>

  <g transform="translate(384 560)"><use href="#turtleFrustrated" /></g>

  <g fill="#c23b3b" font-family="Verdana, Geneva, sans-serif" font-size="46" font-weight="700">
    <text x="180" y="480">?</text>
    <text x="220" y="560">?</text>
    <text x="560" y="480">?</text>
    <text x="130" y="600">?</text>
  </g>

  <!-- RIGHT: With Context -->
  <text x="1152" y="150" text-anchor="middle" font-family="Verdana, Geneva, sans-serif" font-size="32" font-weight="700" fill="#7cff6b" text-decoration="underline">With Context</text>

  <rect x="828" y="240" width="648" height="560" rx="16" fill="#0a1f16" stroke="#7cff6b" stroke-opacity="0.3" stroke-width="2" />

  <g transform="translate(930 180)">
    <path d="M120,168 L98,202 L148,168 Z" fill="#0f2c22" stroke="#7cff6b" stroke-width="3" stroke-linejoin="round" />
    <rect x="0" y="0" width="320" height="170" rx="26" fill="#0f2c22" stroke="#7cff6b" stroke-width="3" />
    <text font-family="Verdana, Geneva, sans-serif" font-size="19">
      <tspan x="160" y="40" text-anchor="middle" fill="#f4fbf5">Look at</tspan>
      <tspan x="160" y="70" text-anchor="middle" fill="#e8a33d">pizza_recipe_app.py</tspan>
      <tspan x="160" y="100" text-anchor="middle" fill="#e8a33d">calculate_topping_stats</tspan>
      <tspan x="160" y="132" text-anchor="middle" fill="#b9efc7" font-style="italic" font-size="17">It's not matching case.</tspan>
    </text>
  </g>

  <g transform="translate(950 600)"><use href="#turtlePointing" /></g>

  <!-- monitor with code -->
  <g transform="translate(1120 480)">
    <rect x="0" y="0" width="280" height="180" rx="10" fill="#03100e" stroke="#7cff6b" stroke-width="3" />
    <circle cx="16" cy="14" r="4" fill="#c23b3b" /><circle cx="30" cy="14" r="4" fill="#e8a33d" /><circle cx="44" cy="14" r="4" fill="#7cff6b" />
    <g font-family="Courier New, monospace" font-size="13">
      <rect x="16" y="30" width="14" height="8" fill="#245c39" /><rect x="36" y="30" width="90" height="8" fill="#7cff6b" opacity="0.5" fill-opacity="0.5" />
      <text x="16" y="56" fill="#e8a33d">pizza_recipe_app.py</text>
      <rect x="16" y="70" width="16" height="8" fill="#245c39" /><rect x="38" y="70" width="70" height="8" fill="#7cff6b" opacity="0.8" />
      <rect x="16" y="90" width="16" height="8" fill="#245c39" /><rect x="38" y="90" width="100" height="8" fill="#e8a33d" opacity="0.8" />
      <rect x="16" y="110" width="16" height="8" fill="#245c39" /><rect x="38" y="110" width="60" height="8" fill="#f4fbf5" opacity="0.6" />
      <rect x="16" y="130" width="16" height="8" fill="#245c39" /><rect x="38" y="130" width="120" height="8" fill="#7cff6b" opacity="0.6" />
      <rect x="16" y="150" width="16" height="8" fill="#245c39" /><rect x="38" y="150" width="80" height="8" fill="#e8a33d" opacity="0.6" />
    </g>
  </g>

  <!-- bottom banner -->
  <rect x="0" y="924" width="1536" height="100" fill="#123222" />
  <line x1="0" y1="924" x2="1536" y2="924" stroke="#7cff6b" stroke-opacity="0.4" stroke-width="2" />
  <text x="768" y="982" text-anchor="middle" font-family="Verdana, Geneva, sans-serif" font-size="30" font-weight="700" fill="#f4fbf5">The @ syntax gives Copilot the context it needs.</text>
</svg>
